<?xml version="1.0" encoding="UTF-8" standalone="no"?>
<svg
   xmlns:dc="http://purl.org/dc/elements/1.1/"
   xmlns:cc="http://creativecommons.org/ns#"
   xmlns:rdf="http://www.w3.org/1999/02/22-rdf-syntax-ns#"
   xmlns:svg="http://www.w3.org/2000/svg"
   xmlns="http://www.w3.org/2000/svg"
   xmlns:sodipodi="http://sodipodi.sourceforge.net/DTD/sodipodi-0.dtd"
   xmlns:inkscape="http://www.inkscape.org/namespaces/inkscape"
   width="45.427418mm"
   height="38.382637mm"
   viewBox="0 0 45.427418 38.382637"
   version="1.1"
   id="svg2432"
   inkscape:version="1.0.1 (0767f8302a, 2020-10-17)"
   sodipodi:docname="camera.svg">
  <defs
     id="defs2426">
    <filter
       style="color-interpolation-filters:sRGB"
       inkscape:label="Drop Shadow"
       id="filter39"
       width="1.3099999"
       height="1.3">
      <feFlood
         flood-opacity="1"
         flood-color="rgb(0,0,0)"
         result="flood"
         id="feFlood29" />
      <feComposite
         in="flood"
         in2="SourceGraphic"
         operator="in"
         result="composite1"
         id="feComposite31" />
      <feGaussianBlur
         in="composite1"
         stdDeviation="3"
         result="blur"
         id="feGaussianBlur33" />
      <feOffset
         dx="3"
         dy="3"
         result="offset"
         id="feOffset35" />
      <feComposite
         in="SourceGraphic"
         in2="offset"
         operator="over"
         result="composite2"
         id="feComposite37" />
    </filter>
  </defs>
  <sodipodi:namedview
     id="base"
     pagecolor="#ffffff"
     bordercolor="#666666"
     borderopacity="1.0"
     inkscape:pageopacity="0.0"
     inkscape:pageshadow="2"
     inkscape:zoom="2.3617793"
     inkscape:cx="152.11245"
     inkscape:cy="86.426111"
     inkscape:document-units="mm"
     inkscape:current-layer="layer1"
     inkscape:document-rotation="0"
     showgrid="false"
     inkscape:window-width="1366"
     inkscape:window-height="731"
     inkscape:window-x="0"
     inkscape:window-y="0"
     inkscape:window-maximized="1" />
  <metadata
     id="metadata2429">
    <rdf:RDF>
      <cc:Work
         rdf:about="">
        <dc:format>image/svg+xml</dc:format>
        <dc:type
           rdf:resource="http://purl.org/dc/dcmitype/StillImage" />
        <dc:title />
      </cc:Work>
    </rdf:RDF>
  </metadata>
  <g
     inkscape:label="Layer 1"
     inkscape:groupmode="layer"
     id="layer1"
     transform="translate(-71.780336,-123.68368)">
    <g
       id="g27">
      <path
         d="M 105.37671,159.43306 H 80.778576 v -15.0054 h 24.598134 v 15.0054"
         style="fill:#d4d4f7;fill-opacity:1;fill-rule:evenodd;stroke:#23232a;stroke-width:0.0352778;stroke-opacity:1"
         id="path314" />
      <path
         d="M 105.37671,159.43306 H 80.778576 v -15.0054 h 24.598134 z"
         style="fill:none;stroke:#23232a;stroke-width:1.74965;stroke-linecap:butt;stroke-linejoin:miter;stroke-miterlimit:10;stroke-dasharray:none;stroke-opacity:1"
         id="path316" />
      <path
         d="M 99.227091,155.67668 H 86.928198 v -7.493 h 12.298893 v 7.493"
         style="fill:#d4d4f7;fill-opacity:1;fill-rule:evenodd;stroke:#23232a;stroke-width:0.0352778;stroke-opacity:1"
         id="path318" />
      <path
         d="M 99.227091,155.67668 H 86.928198 v -7.493 h 12.298893 z"
         style="fill:none;stroke:#23232a;stroke-width:1.74965;stroke-linecap:butt;stroke-linejoin:miter;stroke-miterlimit:10;stroke-dasharray:none;stroke-opacity:1"
         id="path320" />
      <path
         d="m 116.33293,160.82689 -10.95622,-3.89467 V 146.9285 l 10.95622,-3.89502 v 17.79341"
         style="fill:#d4d4f7;fill-opacity:1;fill-rule:evenodd;stroke:#23232a;stroke-width:0.0352778;stroke-opacity:1"
         id="path322" />
      <path
         d="m 116.33293,160.82689 -10.95622,-3.89467 V 146.9285 l 10.95622,-3.89502 z"
         style="fill:none;stroke:#23232a;stroke-width:1.74965;stroke-linecap:butt;stroke-linejoin:miter;stroke-miterlimit:10;stroke-dasharray:none;stroke-opacity:1"
         id="path324" />
      <path
         d="m 92.021252,134.25601 c 0,-5.35798 -4.33317,-9.6975 -9.683045,-9.6975 -5.349876,0 -9.683046,4.33952 -9.683046,9.6975 0,5.35764 4.33317,9.69716 9.683046,9.69716 5.349875,0 9.683045,-4.33952 9.683045,-9.69716 v 0"
         style="fill:#d4d4f7;fill-opacity:1;fill-rule:evenodd;stroke:#23232a;stroke-width:0.0352778;stroke-opacity:1"
         id="path326" />
      <path
         d="m 92.021252,134.25601 c 0,-5.35798 -4.33317,-9.6975 -9.683045,-9.6975 -5.349876,0 -9.683046,4.33952 -9.683046,9.6975 0,5.35764 4.33317,9.69716 9.683046,9.69716 5.349875,0 9.683045,-4.33952 9.683045,-9.69716 z"
         style="fill:none;stroke:#23232a;stroke-width:1.74965;stroke-linecap:butt;stroke-linejoin:miter;stroke-miterlimit:10;stroke-dasharray:none;stroke-opacity:1"
         id="path328" />
      <path
         d="m 111.49635,134.25601 c 0,-5.35798 -4.33317,-9.6975 -9.68305,-9.6975 -5.340345,0 -9.673515,4.33952 -9.673515,9.6975 0,5.35764 4.33317,9.69716 9.673515,9.69716 5.34988,0 9.68305,-4.33952 9.68305,-9.69716 v 0"
         style="fill:#d4d4f7;fill-opacity:1;fill-rule:evenodd;stroke:#23232a;stroke-width:0.0352778;stroke-opacity:1"
         id="path330" />
      <path
         d="m 111.49635,134.25601 c 0,-5.35798 -4.33317,-9.6975 -9.68305,-9.6975 -5.340345,0 -9.673515,4.33952 -9.673515,9.6975 0,5.35764 4.33317,9.69716 9.673515,9.69716 5.34988,0 9.68305,-4.33952 9.68305,-9.69716 z"
         style="fill:none;stroke:#23232a;stroke-width:1.74965;stroke-linecap:butt;stroke-linejoin:miter;stroke-miterlimit:10;stroke-dasharray:none;stroke-opacity:1"
         id="path332" />
    </g>
  </g>
</svg>
