<?xml version="1.0" encoding="UTF-8" standalone="no"?>
<svg
   xmlns:dc="http://purl.org/dc/elements/1.1/"
   xmlns:cc="http://creativecommons.org/ns#"
   xmlns:rdf="http://www.w3.org/1999/02/22-rdf-syntax-ns#"
   xmlns:svg="http://www.w3.org/2000/svg"
   xmlns="http://www.w3.org/2000/svg"
   xmlns:sodipodi="http://sodipodi.sourceforge.net/DTD/sodipodi-0.dtd"
   xmlns:inkscape="http://www.inkscape.org/namespaces/inkscape"
   width="26.623665mm"
   height="40.251789mm"
   viewBox="0 0 26.623665 40.251789"
   version="1.1"
   id="svg3103"
   inkscape:version="1.0.1 (0767f8302a, 2020-10-17)"
   sodipodi:docname="microfone.svg">
  <defs
     id="defs3097" />
  <sodipodi:namedview
     id="base"
     pagecolor="#ffffff"
     bordercolor="#666666"
     borderopacity="1.0"
     inkscape:pageopacity="0.0"
     inkscape:pageshadow="2"
     inkscape:zoom="2.9227554"
     inkscape:cx="22.46081"
     inkscape:cy="81.120598"
     inkscape:document-units="mm"
     inkscape:current-layer="layer1"
     inkscape:document-rotation="0"
     showgrid="false"
     inkscape:window-width="1366"
     inkscape:window-height="731"
     inkscape:window-x="0"
     inkscape:window-y="0"
     inkscape:window-maximized="1" />
  <metadata
     id="metadata3100">
    <rdf:RDF>
      <cc:Work
         rdf:about="">
        <dc:format>image/svg+xml</dc:format>
        <dc:type
           rdf:resource="http://purl.org/dc/dcmitype/StillImage" />
        <dc:title></dc:title>
      </cc:Work>
    </rdf:RDF>
  </metadata>
  <g
     inkscape:label="Layer 1"
     inkscape:groupmode="layer"
     id="layer1"
     transform="translate(-80.426263,-97.046729)">
    <path
       d="m 106.1751,117.929 c 0,6.86011 -5.57671,12.45517 -12.437181,12.45517 -6.850239,0 -12.436829,-5.59506 -12.436829,-12.45517 h 24.87401"
       style="fill:#ffffff;fill-opacity:1;fill-rule:evenodd;stroke:#23232a;stroke-width:0.0352778;stroke-opacity:1"
       id="path386" />
    <path
       d="m 106.1751,117.929 c 0,6.86011 -5.57671,12.45517 -12.437181,12.45517 -6.850239,0 -12.436829,-5.59506 -12.436829,-12.45517"
       style="fill:none;stroke:#23232a;stroke-width:1.74965;stroke-linecap:butt;stroke-linejoin:miter;stroke-miterlimit:10;stroke-dasharray:none;stroke-opacity:1"
       id="path388" />
    <path
       d="m 93.737919,97.921556 c -4.737453,0 -8.57744,3.845274 -8.57744,8.590144 v 11.4173 c 0,4.74486 3.839987,8.59014 8.57744,8.59014 4.738158,0 8.578141,-3.84528 8.578141,-8.59014 v -11.4173 c 0,-4.74487 -3.839983,-8.590144 -8.578141,-8.590144 v 0"
       style="fill:#d4d4f7;fill-opacity:1;fill-rule:evenodd;stroke:#23232a;stroke-width:0.0352778;stroke-opacity:1"
       id="path390" />
    <path
       d="m 93.737919,97.921556 c -4.737453,0 -8.57744,3.845274 -8.57744,8.590144 v 11.4173 c 0,4.74486 3.839987,8.59014 8.57744,8.59014 4.738158,0 8.578141,-3.84528 8.578141,-8.59014 v -11.4173 c 0,-4.74487 -3.839983,-8.590144 -8.578141,-8.590144 z"
       style="fill:none;stroke:#23232a;stroke-width:1.74965;stroke-linecap:butt;stroke-linejoin:miter;stroke-miterlimit:10;stroke-dasharray:none;stroke-opacity:1"
       id="path392" />
    <path
       d="m 89.454491,112.21541 h -4.294012 v 5.71359 h 4.294012 v -5.71359"
       style="fill:#d4d4f7;fill-opacity:1;fill-rule:evenodd;stroke:#23232a;stroke-width:0.0352778;stroke-opacity:1"
       id="path394" />
    <path
       d="m 89.454491,112.21541 h -4.294012 v 5.71359 h 4.294012"
       style="fill:none;stroke:#23232a;stroke-width:1.74965;stroke-linecap:butt;stroke-linejoin:miter;stroke-miterlimit:10;stroke-dasharray:none;stroke-opacity:1"
       id="path396" />
    <path
       d="m 98.03193,117.929 h 4.28413 v -5.71359 h -4.28413 v 5.71359"
       style="fill:#d4d4f7;fill-opacity:1;fill-rule:evenodd;stroke:#23232a;stroke-width:0.0352778;stroke-opacity:1"
       id="path398" />
    <path
       d="m 98.03193,117.929 h 4.28413 v -5.71359 h -4.28413"
       style="fill:none;stroke:#23232a;stroke-width:1.74965;stroke-linecap:butt;stroke-linejoin:miter;stroke-miterlimit:10;stroke-dasharray:none;stroke-opacity:1"
       id="path400" />
    <path
       d="m 89.454491,106.5117 h -4.294012 v 5.70371 h 4.294012 v -5.70371"
       style="fill:#ffffff;fill-opacity:1;fill-rule:evenodd;stroke:#23232a;stroke-width:0.0352778;stroke-opacity:1"
       id="path402" />
    <path
       d="m 89.454491,106.5117 h -4.294012 v 5.70371 h 4.294012"
       style="fill:#d4d4f7;stroke:#23232a;stroke-width:1.74965;stroke-linecap:butt;stroke-linejoin:miter;stroke-miterlimit:10;stroke-dasharray:none;stroke-opacity:1;fill-opacity:1"
       id="path404" />
    <path
       d="m 98.03193,112.21541 h 4.28413 v -5.70371 h -4.28413 v 5.70371"
       style="fill:#d4d4f7;fill-opacity:1;fill-rule:evenodd;stroke:#23232a;stroke-width:0.0352778;stroke-opacity:1"
       id="path406" />
    <path
       d="m 98.03193,112.21541 h 4.28413 v -5.70371 h -4.28413"
       style="fill:none;stroke:#23232a;stroke-width:1.74965;stroke-linecap:butt;stroke-linejoin:miter;stroke-miterlimit:10;stroke-dasharray:none;stroke-opacity:1"
       id="path408" />
    <path
       d="m 93.737919,130.38417 v 6.03952 h -8.261351 16.069382"
       style="fill:none;stroke:#23232a;stroke-width:1.74965;stroke-linecap:butt;stroke-linejoin:miter;stroke-miterlimit:10;stroke-dasharray:none;stroke-opacity:1"
       id="path410" />
  </g>
</svg>
