<?xml version="1.0" encoding="UTF-8" standalone="no"?>
<svg
   xmlns:dc="http://purl.org/dc/elements/1.1/"
   xmlns:cc="http://creativecommons.org/ns#"
   xmlns:rdf="http://www.w3.org/1999/02/22-rdf-syntax-ns#"
   xmlns:svg="http://www.w3.org/2000/svg"
   xmlns="http://www.w3.org/2000/svg"
   xmlns:xlink="http://www.w3.org/1999/xlink"
   xmlns:sodipodi="http://sodipodi.sourceforge.net/DTD/sodipodi-0.dtd"
   xmlns:inkscape="http://www.inkscape.org/namespaces/inkscape"
   width="200"
   height="200"
   viewBox="0 0 200 200"
   fill="none"
   version="1.1"
   id="svg18"
   sodipodi:docname="favicon.svg"
   inkscape:version="1.0.1 (0767f8302a, 2020-10-17)">
  <metadata
     id="metadata22">
    <rdf:RDF>
      <cc:Work
         rdf:about="">
        <dc:format>image/svg+xml</dc:format>
        <dc:type
           rdf:resource="http://purl.org/dc/dcmitype/StillImage" />
      </cc:Work>
    </rdf:RDF>
  </metadata>
  <sodipodi:namedview
     pagecolor="#ffffff"
     bordercolor="#666666"
     borderopacity="1"
     objecttolerance="10"
     gridtolerance="10"
     guidetolerance="10"
     inkscape:pageopacity="0"
     inkscape:pageshadow="2"
     inkscape:window-width="1366"
     inkscape:window-height="731"
     id="namedview20"
     showgrid="false"
     inkscape:zoom="1.4703622"
     inkscape:cx="139.02876"
     inkscape:cy="79.345189"
     inkscape:window-x="0"
     inkscape:window-y="0"
     inkscape:window-maximized="1"
     inkscape:current-layer="svg18"
     inkscape:document-rotation="0" />
  <circle
     cx="100"
     cy="100"
     r="100"
     fill="url(#paint0_linear)"
     id="circle2"
     style="fill:url(#background);fill-opacity:1" />
  <defs
     id="defs16">
    <linearGradient
       id="background"
       x1="100"
       y1="0"
       x2="100"
       y2="200"
       gradientUnits="userSpaceOnUse"
       spreadMethod="pad">
      <stop
         stop-color="#0C102C"
         id="stop6"
         style="stop-color:#161c50;stop-opacity:1" />
      <stop
         offset="1"
         stop-color="#161C50"
         id="stop8"
         style="stop-color:#23232a;stop-opacity:1" />
    </linearGradient>
    <radialGradient
       id="c"
       cx="0"
       cy="0"
       r="1"
       gradientUnits="userSpaceOnUse"
       gradientTransform="matrix(0,71,-71,0,100,100)">
      <stop
         stop-color="#FFDA00"
         id="stop11"
         style="stop-color:#420c14;stop-opacity:1" />
      <stop
         offset="1"
         stop-color="#FD2A0F"
         id="stop13"
         style="stop-color:#ff5b0f;stop-opacity:1" />
    </radialGradient>
    <radialGradient
       id="c-6"
       cx="0"
       cy="0"
       r="1"
       gradientUnits="userSpaceOnUse"
       gradientTransform="matrix(0,71,-71,0,100,100)">
      <stop
         stop-color="#FFDA00"
         id="stop11-2"
         style="stop-color:#e8c500;stop-opacity:1" />
      <stop
         offset="1"
         stop-color="#FD2A0F"
         id="stop13-9"
         style="stop-color:#ff5b0f;stop-opacity:1" />
    </radialGradient>
    <linearGradient
       inkscape:collect="always"
       xlink:href="#c-6"
       id="linearGradient847"
       x1="97.020088"
       y1="169.60373"
       x2="96.068863"
       y2="54.087811"
       gradientUnits="userSpaceOnUse"
       gradientTransform="translate(-26.49997,-26.500076)" />
  </defs>
  <g
     style="fill:none"
     id="g32"
     transform="translate(29.168628,26.500102)">
    <path
       d="m 134.98803,37.999924 c -7.974,-13.8113 -20.366,-24.5358 -35.178,-30.4455004 -14.813,-5.9096 -31.1839,-6.66019999 -46.4751,-2.1307 -15.2912,4.5294 -28.6122,14.0751004 -37.8164,27.0989004 -9.2042999,13.0237 -13.7557999,28.767 -12.9211999,44.6933 0.8346,15.926 7.0068,31.106996 17.5220999,43.097996 10.5152,11.99 24.761,20.091 40.4418,22.997 15.6808,2.906 31.8838,0.449 45.9978,-6.977 14.113,-7.425 25.316,-19.386 31.803,-33.956 l -32.431,-14.438996 c -3.243,7.285 -8.845,13.264996 -15.902,16.977996 -7.057,3.713 -15.158,4.942 -22.9984,3.489 -7.8404,-1.454 -14.9633,-5.504 -20.2209,-11.498996 -5.2576,-5.995 -8.3437,-13.586 -8.761,-21.549 -0.4174,-7.9631 1.8584,-15.8348 6.4605,-22.3467 4.6022,-6.5118 11.2627,-11.2847 18.9083,-13.5494 7.6456,-2.2647 15.8305,-1.8895 23.2375,1.0654 7.406,2.9548 13.602,8.317 17.589,15.2227 z"
       fill="url(#paint1_radial)"
       id="path4"
       style="fill:url(#linearGradient847);fill-opacity:1;stroke:#23232a;stroke-width:5;stroke-miterlimit:4;stroke-dasharray:none;stroke-opacity:1" />
  </g>
</svg>
