<?xml version="1.0" encoding="UTF-8" standalone="no"?>
<svg
   width="1000"
   height="1000"
   viewBox="0 0 264.58334 264.58333"
   version="1.1"
   id="svg198"
   inkscape:version="1.1 (ce6663b3b7, 2021-05-25)"
   sodipodi:docname="3d-glasses.svg"
   xmlns:inkscape="http://www.inkscape.org/namespaces/inkscape"
   xmlns:sodipodi="http://sodipodi.sourceforge.net/DTD/sodipodi-0.dtd"
   xmlns="http://www.w3.org/2000/svg"
   xmlns:svg="http://www.w3.org/2000/svg"
   xmlns:rdf="http://www.w3.org/1999/02/22-rdf-syntax-ns#"
   xmlns:cc="http://creativecommons.org/ns#"
   xmlns:dc="http://purl.org/dc/elements/1.1/">
  <defs
     id="defs192">
    <filter
       id="filter1803"
       inkscape:label="Drop Shadow"
       style="color-interpolation-filters:sRGB">
      <feFlood
         id="feFlood1793"
         result="flood"
         flood-color="rgb(0,0,0)"
         flood-opacity="0.498039" />
      <feComposite
         id="feComposite1795"
         result="composite1"
         operator="in"
         in2="SourceGraphic"
         in="flood" />
      <feGaussianBlur
         id="feGaussianBlur1797"
         result="blur"
         stdDeviation="2"
         in="composite1" />
      <feOffset
         id="feOffset1799"
         result="offset"
         dy="5"
         dx="5" />
      <feComposite
         id="feComposite1801"
         result="composite2"
         operator="over"
         in2="offset"
         in="SourceGraphic" />
    </filter>
    <filter
       style="color-interpolation-filters:sRGB"
       inkscape:label="Drop Shadow"
       id="filter207">
      <feFlood
         flood-opacity="1"
         flood-color="rgb(0,0,0)"
         result="flood"
         id="feFlood197" />
      <feComposite
         in="flood"
         in2="SourceGraphic"
         operator="in"
         result="composite1"
         id="feComposite199" />
      <feGaussianBlur
         in="composite1"
         stdDeviation="3"
         result="blur"
         id="feGaussianBlur201" />
      <feOffset
         dx="3"
         dy="3"
         result="offset"
         id="feOffset203" />
      <feComposite
         in="SourceGraphic"
         in2="offset"
         operator="over"
         result="composite2"
         id="feComposite205" />
    </filter>
  </defs>
  <sodipodi:namedview
     id="base"
     pagecolor="#ffffff"
     bordercolor="#666666"
     borderopacity="1.0"
     inkscape:pageopacity="0.0"
     inkscape:pageshadow="2"
     inkscape:zoom="0.41660281"
     inkscape:cx="502.87706"
     inkscape:cy="436.86695"
     inkscape:document-units="px"
     inkscape:current-layer="layer1"
     inkscape:document-rotation="0"
     showgrid="false"
     inkscape:window-width="1366"
     inkscape:window-height="704"
     inkscape:window-x="0"
     inkscape:window-y="0"
     inkscape:window-maximized="1"
     inkscape:pagecheckerboard="0"
     units="px"
     width="1000px" />
  <metadata
     id="metadata195">
    <rdf:RDF>
      <cc:Work
         rdf:about="">
        <dc:format>image/svg+xml</dc:format>
        <dc:type
           rdf:resource="http://purl.org/dc/dcmitype/StillImage" />
      </cc:Work>
    </rdf:RDF>
  </metadata>
  <g
     inkscape:label="Layer 1"
     inkscape:groupmode="layer"
     id="layer1"
     transform="translate(-18.494445,-103.57488)">
    <g
       id="g248"
       transform="matrix(2.3486632,0.03102615,-0.03102615,2.3486632,-20.722478,-84.57953)">
      <path
         sodipodi:nodetypes="sssscccsssscsccccccccccccccsssss"
         id="path1156-5"
         d="m 120.83411,94.572048 c 0.61271,1.083868 1.88582,2.610345 3.35904,1.633547 0.69453,-0.460498 0.869,-1.586173 0.16829,-2.391403 -0.42097,-0.483762 -1.34104,-0.624126 -0.78064,-1.793054 0.50884,-1.061398 2.32897,0.02868 2.32897,0.02868 l 11.83207,5.334146 -34.36813,5.962586 c 0,0 6.32215,-6.265862 9.43755,-8.994349 0.52409,-0.458998 0.95954,-1.441409 1.85728,-0.958445 0.44644,0.240172 1.01699,0.880614 0.36787,1.652251 -0.0569,0.06768 -1.21103,1.321476 0.17331,2.404003 1.67086,1.306586 2.97355,-1.490746 2.98832,-1.759237 0.54543,-1.794447 0.0138,-3.250612 -1.1608,-4.324845 -2.17545,-1.989571 -4.78045,-1.041747 -5.68118,0.08257 L 97.463497,104.64147 c -0.332571,0.5252 -0.597161,1.0772 -0.3324,1.83797 l 2.106947,12.23448 c 0.267304,1.34028 0.872966,1.15765 1.474066,1.36285 l 17.7915,-2.98538 c 0.99545,-0.0401 1.54677,-0.72003 1.69723,-1.73323 l -0.32142,-11.689 2.42993,-0.4216 3.62604,10.91297 c 0.33395,0.85672 0.80318,1.52462 1.99661,1.18173 l 17.96845,-3.07295 c 0.68557,-0.42726 0.9459,-1.01867 0.98218,-1.69657 l -2.01438,-12.006111 c -0.0293,-0.820902 -0.44257,-1.436086 -0.96656,-1.888961 -0.41119,-0.355385 -14.06109,-6.316755 -18.34668,-8.038106 -1.16911,-0.469585 -3.33088,0.06462 -4.29984,1.221054 -1.01265,1.208571 -1.19699,3.338829 -0.42106,4.711429 z"
         style="fill:#1d1d1d;fill-opacity:1;stroke:#1d1d1d;stroke-width:0.264583px;stroke-linecap:butt;stroke-linejoin:miter;stroke-opacity:1"
         transform="matrix(2.284258,0.36290169,-0.36290169,2.284258,-164.37963,-143.34847)" />
      <path
         id="path1158-9"
         d="m 100.3615,107.05532 16.3919,-2.84404 0.26419,9.91106 -14.97902,2.5989 z"
         style="fill:#36ffff;fill-opacity:1;stroke:#1d1d1d;stroke-width:0.264583px;stroke-linecap:butt;stroke-linejoin:miter;stroke-opacity:1"
         transform="matrix(2.284258,0.36290169,-0.36290169,2.284258,-164.37963,-143.34847)" />
      <path
         id="path1160-2"
         d="m 125.43532,102.70495 16.3919,-2.844044 1.67706,9.665924 -14.97902,2.5989 -3.08994,-9.42078"
         style="fill:#f04b3e;fill-opacity:1;stroke:#1d1d1d;stroke-width:0.264583px;stroke-linecap:butt;stroke-linejoin:miter;stroke-opacity:1"
         transform="matrix(2.284258,0.36290169,-0.36290169,2.284258,-164.37963,-143.34847)" />
    </g>
  </g>
</svg>
