<?xml version="1.0" encoding="UTF-8" standalone="no"?>
<svg
   xmlns:dc="http://purl.org/dc/elements/1.1/"
   xmlns:cc="http://creativecommons.org/ns#"
   xmlns:rdf="http://www.w3.org/1999/02/22-rdf-syntax-ns#"
   xmlns:svg="http://www.w3.org/2000/svg"
   xmlns="http://www.w3.org/2000/svg"
   xmlns:sodipodi="http://sodipodi.sourceforge.net/DTD/sodipodi-0.dtd"
   xmlns:inkscape="http://www.inkscape.org/namespaces/inkscape"
   width="78.62175mm"
   height="96.464363mm"
   viewBox="0 0 78.62175 96.464365"
   version="1.1"
   id="svg318"
   inkscape:version="1.0.1 (0767f8302a, 2020-10-17)"
   sodipodi:docname="popcorn.svg">
  <defs
     id="defs312">
    <filter
       height="1.41"
       width="1.54"
       id="filter1731"
       inkscape:label="Drop Shadow"
       style="color-interpolation-filters:sRGB">
      <feFlood
         id="feFlood1721"
         result="flood"
         flood-color="rgb(0,0,0)"
         flood-opacity="0.498039" />
      <feComposite
         id="feComposite1723"
         result="composite1"
         operator="in"
         in2="SourceGraphic"
         in="flood" />
      <feGaussianBlur
         id="feGaussianBlur1725"
         result="blur"
         stdDeviation="2"
         in="composite1" />
      <feOffset
         id="feOffset1727"
         result="offset"
         dy="5"
         dx="5" />
      <feComposite
         id="feComposite1729"
         result="composite2"
         operator="over"
         in="SourceGraphic"
         in2="offset" />
    </filter>
    <filter
       style="color-interpolation-filters:sRGB"
       inkscape:label="Drop Shadow"
       id="filter31"
       x="0.25999999"
       width="0.76999998"
       y="0.0099999998"
       height="1.05">
      <feFlood
         flood-opacity="1"
         flood-color="rgb(0,0,0)"
         result="flood"
         id="feFlood21" />
      <feComposite
         in="flood"
         in2="SourceGraphic"
         operator="in"
         result="composite1"
         id="feComposite23" />
      <feGaussianBlur
         in="composite1"
         stdDeviation="3"
         result="blur"
         id="feGaussianBlur25" />
      <feOffset
         dx="3"
         dy="3"
         result="offset"
         id="feOffset27" />
      <feComposite
         in="SourceGraphic"
         in2="offset"
         operator="over"
         result="composite2"
         id="feComposite29" />
    </filter>
    <filter
       style="color-interpolation-filters:sRGB"
       inkscape:label="Drop Shadow"
       id="filter58"
       width="1.25"
       height="1.24">
      <feFlood
         flood-opacity="1"
         flood-color="rgb(0,0,0)"
         result="flood"
         id="feFlood48" />
      <feComposite
         in="flood"
         in2="SourceGraphic"
         operator="in"
         result="composite1"
         id="feComposite50" />
      <feGaussianBlur
         in="composite1"
         stdDeviation="3"
         result="blur"
         id="feGaussianBlur52" />
      <feOffset
         dx="3"
         dy="3"
         result="offset"
         id="feOffset54" />
      <feComposite
         in="SourceGraphic"
         in2="offset"
         operator="over"
         result="composite2"
         id="feComposite56" />
    </filter>
  </defs>
  <sodipodi:namedview
     id="base"
     pagecolor="#5b5b5b"
     bordercolor="#666666"
     borderopacity="1.0"
     inkscape:pageopacity="0"
     inkscape:pageshadow="2"
     inkscape:zoom="0.79396481"
     inkscape:cx="30.148403"
     inkscape:cy="238.75974"
     inkscape:document-units="mm"
     inkscape:current-layer="layer1"
     inkscape:document-rotation="0"
     showgrid="false"
     inkscape:window-width="1366"
     inkscape:window-height="731"
     inkscape:window-x="0"
     inkscape:window-y="0"
     inkscape:window-maximized="1" />
  <metadata
     id="metadata315">
    <rdf:RDF>
      <cc:Work
         rdf:about="">
        <dc:format>image/svg+xml</dc:format>
        <dc:type
           rdf:resource="http://purl.org/dc/dcmitype/StillImage" />
        <dc:title />
      </cc:Work>
    </rdf:RDF>
  </metadata>
  <g
     inkscape:label="Layer 1"
     inkscape:groupmode="layer"
     id="layer1"
     transform="translate(-50.619196,-90.815508)">
    <g
       id="g46">
      <path
         id="path280"
         style="fill:#ffe799;fill-opacity:1;stroke:#1d1d1d;stroke-width:1.74965;stroke-linecap:butt;stroke-linejoin:miter;stroke-miterlimit:10;stroke-dasharray:none;stroke-opacity:1"
         d="m 121.2,208.0201 c 1.28102,-0.28069 2.09722,-1.557 1.81232,-2.8485 -0.15728,-0.7356 -0.65941,-1.32271 -1.29425,-1.63176 0.16229,-0.4173 0.20003,-0.8796 0.0998,-1.34003 -0.2849,-1.2915 -1.56082,-2.11052 -2.85068,-1.82627 -0.13615,0.033 -0.26769,0.0756 -0.39599,0.12722 -0.58734,-1.011 -1.8405,-1.45555 -2.94883,-1.01005 -1.19015,0.47837 -1.77555,1.80106 -1.36824,3.00078 -0.0968,0.0495 -0.20311,0.10291 -0.30571,0.16548 -0.51563,-1.17785 -1.87032,-1.74165 -3.06997,-1.25946 -0.11,0.0442 -0.20666,0.0941 -0.30381,0.14375 -0.63416,-0.81044 -1.75501,-1.13783 -2.75335,-0.73656 -1.22747,0.49338 -1.8184,1.88179 -1.32818,3.10141 0.0479,0.11914 0.10164,0.22528 0.16776,0.33787 -0.0568,0.044 -0.1059,0.10641 -0.14627,0.16486 -0.65227,-0.69671 -1.69437,-0.95955 -2.62857,-0.58406 -0.3388,0.13613 -0.62605,0.34749 -0.85496,0.5991 -0.5963,-0.29262 -1.30022,-0.35072 -1.95979,-0.0856 -1.227469,0.49338 -1.818195,1.88133 -1.324034,3.11077 0.09196,0.2288 0.220826,0.44354 0.366104,0.61933 -0.262293,0.01 -0.536866,0.0671 -0.802657,0.17396 -1.217984,0.48956 -1.809171,1.87732 -1.315138,3.10643 0.04789,0.11915 0.10498,0.2346 0.16765,0.33753 -0.996162,0.59208 -1.451618,1.84083 -1.005601,2.95046 0.490353,1.21994 1.881332,1.82201 3.108476,1.32875 z"
         transform="matrix(2.2587116,0.90512637,-0.90512637,2.2587116,31.255669,-458.20756)" />
      <g
         style="fill:#f04b3e;fill-opacity:1;stroke:#1d1d1d;stroke-opacity:1"
         id="g1977"
         transform="matrix(2.3804067,-0.5046738,0.5046738,2.3804067,-314.26625,-322.52577)">
        <path
           d="m 139.65699,215.21616 -29.64092,-6.25173 -1.80321,27.25032 22.07898,4.65679 z"
           style="fill:#f04b3e;fill-opacity:1;stroke:#1d1d1d;stroke-width:1.74965;stroke-linecap:butt;stroke-linejoin:miter;stroke-miterlimit:10;stroke-dasharray:none;stroke-opacity:1"
           id="path284" />
        <path
           d="m 131.73744,213.5458 -13.81149,-2.91305 -3.81183,26.82667 10.28578,2.16942 7.33754,-26.08304"
           style="fill:#f04b3e;fill-opacity:1;fill-rule:evenodd;stroke:#1d1d1d;stroke-width:0.0352778;stroke-opacity:1"
           id="path286" />
      </g>
      <path
         id="path288"
         style="fill:none;stroke:#1d1d1d;stroke-width:1.74965;stroke-linecap:butt;stroke-linejoin:miter;stroke-miterlimit:10;stroke-dasharray:none;stroke-opacity:1"
         d="m 117.21387,208.71626 -13.09697,5.26427 11.75915,24.41153 9.75366,-3.92044 z"
         transform="matrix(2.2587116,0.90512637,-0.90512637,2.2587116,31.255669,-458.20756)" />
    </g>
  </g>
</svg>
